<svg xmlns="http://www.w3.org/2000/svg" viewBox="0 0 477.24 512"><defs><style>.cls-5{fill:#db4655}</style></defs><g id="Слой_2" data-name="Слой 2"><g id="Capa_1" data-name="Capa 1"><path d="M26.82 80.93L238.61 504.5 451 79.64 326.79 31.55H142.42z" fill="#ffe09f"/><path d="M331.5 113.66c-31.06-6.78-59.68-42-92.88-42s-61.82 35.25-92.88 42c-31.92 7-73.34-12.45-102.25.59L238.61 504.5l195.13-390.25c-28.92-13-70.33 6.38-102.24-.59z" fill="#fff0af"/><path d="M238.62 223.93a279.29 279.29 0 00-125.47 29.63L238.61 504.5l125.47-250.94a279.3 279.3 0 00-125.46-29.63z" fill="#fff5d7"/><circle cx="278.7" cy="352.19" r="40.08" fill="#e5646e"/><circle class="cls-5" cx="142.42" cy="223.93" r="56.11"/><path d="M460.89 60a496.84 496.84 0 00-444.54 0 16 16 0 0014.36 28.66 464.77 464.77 0 01415.81 0A16 16 0 10460.89 60z" fill="#ffc269"/><circle class="cls-5" cx="294.73" cy="183.85" r="32.07"/><path d="M310.76 199.89a32 32 0 01-29.18-45.21A32 32 0 10323.91 197a31.82 31.82 0 01-13.15 2.89z" fill="#bd4150"/><path d="M464.25 53.29A499.25 499.25 0 00238.62 0 499.25 499.25 0 0013 53.29a23.55 23.55 0 0010.56 44.58 23.32 23.32 0 003.24-.24l54.45 108.9a63.54 63.54 0 0038.39 76.78l112.27 224.55a7.5 7.5 0 0013.42 0l57.27-114.55a47.6 47.6 0 0023.68-41.12 48.79 48.79 0 00-.32-5.6l124.49-249a23.18 23.18 0 003.25.24 23.54 23.54 0 0010.55-44.58zm-2.91 24.86A8.52 8.52 0 01449.91 82c-6.34-3.18-12.83-6.25-19.27-9.13a7.5 7.5 0 10-6.12 13.7c4 1.79 8 3.65 12 5.57l-7.59 15.18c-17.23-7.89-37.49-5-57.11-2.28-15.33 2.16-29.81 4.2-42.24 1.37-11.78-2.68-23.59-10.6-36.1-19-17-11.42-34.65-23.23-54.79-23.23s-37.75 11.81-54.79 23.23c-12.51 8.39-24.33 16.31-36.1 19-9.43 2.14-20.2 1.35-28.52.43a7.5 7.5 0 00-1.66 14.91c9.5 1.06 21.88 1.93 33.51-.71 14.49-3.29 28-12.37 41.13-21.15 15.8-10.71 30.74-20.76 46.36-20.76s30.56 10.05 46.43 20.69c13.1 8.78 26.64 17.86 41.13 21.15 15.12 3.44 31.66 1.11 47.66-1.15 18.05-2.54 35.12-4.93 48.29.87L319 326.9a47.81 47.81 0 00-11.74-12.75 7.5 7.5 0 10-9 12 32.58 32.58 0 11-26.09-5.88 7.5 7.5 0 10-3-14.7 47.58 47.58 0 00-36.66 58.14L217.28 379a7.5 7.5 0 1010.61 10.61L239 378.42a47.57 47.57 0 0039.67 21.35c1.34 0 2.67-.07 4-.18l-44.07 88.14-76.44-152.91 22.72-7.57a7.5 7.5 0 10-4.75-14.25l-24.76 8.22-16.91-33.82c1.31.08 2.63.14 4 .14a63.63 63.63 0 0054.52-96.41 7.5 7.5 0 10-12.85 7.74A48.56 48.56 0 11163.25 180a7.5 7.5 0 006.43-13.55A63.6 63.6 0 0089.27 189l-16.43-32.83 15.84-5.28a7.5 7.5 0 10-4.74-14.23l-17.88 6-11-21.94c7.54-3.32 17-4.27 30.55-3.06A7.5 7.5 0 1087 102.68c-11.2-1-25.63-1.35-38.6 4.58l-7.6-15.19a457.85 457.85 0 01355.59-17A7.5 7.5 0 10401.57 61 472.83 472.83 0 0027.35 82a8.53 8.53 0 01-7.64-15.3 489.33 489.33 0 01437.82 0 8.54 8.54 0 013.8 11.45z"/><path d="M294.73 223.42a39.56 39.56 0 10-39.56-39.57 39.61 39.61 0 0039.56 39.57zm0-64.13a24.56 24.56 0 11-24.56 24.56 24.59 24.59 0 0124.56-24.56zm-80.16 0a7.47 7.47 0 005.3-2.2l24-24a7.5 7.5 0 00-10.61-10.61l-24 24a7.5 7.5 0 005.3 12.8zm98.91 83.39l-24 24A7.5 7.5 0 10300 277.33l24-24a7.5 7.5 0 10-10.61-10.61zm53.4-59.34a7.5 7.5 0 007.5-7.5v-24a7.5 7.5 0 00-15 0v24a7.5 7.5 0 007.5 7.5zm-140.44 58.4a7.5 7.5 0 00-2.08 10.4l16 24a7.5 7.5 0 1012.48-8.32l-16-24a7.5 7.5 0 00-10.4-2.08zm-76.52-33.84v-8a7.5 7.5 0 00-15 0v8a7.5 7.5 0 0015 0zM270.1 355.72a7.5 7.5 0 000 15h.08a7.5 7.5 0 00-.08-15zM153.15 234.66l-8 8a7.5 7.5 0 1010.61 10.61l8-8a7.5 7.5 0 00-10.61-10.61zm-34.77-10.21h-.08a7.54 7.54 0 10.08 0zm171.76 108.72a7.54 7.54 0 10.08 0z"/></g></g></svg>