<svg version="1.0" xmlns="http://www.w3.org/2000/svg" width="537.333" height="537.333" viewBox="0 0 403 403"><path d="M176.8.5c-.1.1-4.1.5-8.8.9-4.7.4-10.1.9-12 1.1-1.9.3-5.5.7-8 1-2.5.3-5.6.7-7 1-1.4.2-6.6 1.1-11.5 1.9C97.1 12 58 25 25.1 41.3c-11.3 5.6-14.8 18.9-7.4 28.5 2.9 3.9 9.3 7.1 14 7.2h3.1l21.4 42.7c11.7 23.5 21.2 43 21.1 43.4-1.8 5.5-1.9 17.5-.3 24.3 2.9 12.9 12.9 25.9 24.9 32.6l6.2 3.5 44.2 88.5c46 91.9 46 91.9 51.1 90.1 1.5-.6 8.3-13.2 24.7-46.2 12.5-25 23.5-46.1 24.4-46.9 12.2-10.1 16.4-17.3 17.2-29.6l.6-7.9 48.6-97 48.6-97 4.2-.7c6.4-1 10.5-3.4 13.7-7.9 5.1-7.3 4-18.3-2.6-24.1-2.7-2.4-19.1-10.3-33.3-16-15.9-6.5-35.7-13-52.5-17.3-3.4-.9-26.7-5.7-29-6-6.6-.9-11.6-1.6-13-2-.8-.2-5.1-.7-9.5-1.1-4.4-.3-8.9-.8-10-1.1-2.2-.5-58.1-1.3-58.7-.8z"/></svg>